# xmcd
#
# Track frame offsets:
#	150
#	23470
#	40100
#	50490
#	70707
#	83430
#	101195
#	111780
#	129077
#	148657
#	170837
#	183850
#	196195
#	213870
#
# Disc length: 3120 seconds
#
# Revision: 0
# Processed by: cddbd v1.5.1PL0 Copyright (c) Steve Scherf et al.
# Submitted via: EasyCDDAExtractor 7.1.2.1
#
DISCID=b20c2e0e
DTITLE=Big Joe Duskin - Blues Rendez-Vous
DYEAR=1994
DGENRE=Blues
TTITLE0=Boogie Woogie On St-Louis Blues
TTITLE1=Key To The Highway
TTITLE2=6Th Avenue Express
TTITLE3=My Little Kangaroo Girl
TTITLE4=Sunrise Serenade
TTITLE5=Mean And Evil Woman
TTITLE6=Big Joe Duskin Boogie
TTITLE7=Well Well Baby Blues
TTITLE8=Betty And Dupree
TTITLE9=Small Batch Of Knod
TTITLE10=Leaving In The Morning
TTITLE11=So Long
TTITLE12=Call My Job
TTITLE13=Four O' Clock In The Morning
EXTD=
EXTT0=
EXTT1=
EXTT2=
EXTT3=
EXTT4=
EXTT5=
EXTT6=
EXTT7=
EXTT8=
EXTT9=
EXTT10=
EXTT11=
EXTT12=
EXTT13=
PLAYORDER=
